<?xml version="1.0" encoding="UTF-8"?>
<svg id="Layer_2" data-name="Layer 2" xmlns="http://www.w3.org/2000/svg" viewBox="0 0 23.39 23.67">
  <defs>
    <style>
      .cls-1 {
        fill: #3739cb;
      }

      .cls-1, .cls-2 {
        stroke-width: 0px;
      }

      .cls-2 {
        fill: #a4bbfb;
        opacity: .5;
      }
    </style>
  </defs>
  <g id="Catalog">
    <g>
      <path class="cls-2" d="M7.64,11.84c0-3.03,1.69-5.67,4.18-7.03-1.14-.62-2.44-.97-3.82-.97C3.58,3.84,0,7.42,0,11.84s3.58,8,8,8c1.38,0,2.69-.35,3.82-.97-2.49-1.36-4.18-4-4.18-7.03Z"/>
      <path class="cls-1" d="M7.98,19.84c-3.56,0-6.58-2.33-7.62-5.56h-.12c1.12,5.36,5.86,9.39,11.56,9.39s10.45-4.03,11.58-9.39h-7.79c-1.03,3.23-4.06,5.56-7.62,5.56Z"/>
      <path class="cls-1" d="M7.98,3.84c3.56,0,6.58,2.33,7.62,5.55h7.79C22.26,4.03,17.5,0,11.81,0S1.37,4.03.25,9.39h.12C1.4,6.17,4.42,3.84,7.98,3.84Z"/>
    </g>
  </g>
</svg>