<?xml version="1.0" encoding="UTF-8"?>
<svg id="Layer_2" data-name="Layer 2" xmlns="http://www.w3.org/2000/svg" viewBox="0 0 24.74 24">
  <defs>
    <style>
      .cls-1 {
        fill: #1c5cd1;
      }

      .cls-1, .cls-2, .cls-3 {
        stroke-width: 0px;
      }

      .cls-2 {
        fill: #3190f8;
      }

      .cls-3 {
        fill: #1c70ed;
      }
    </style>
  </defs>
  <g id="Circooles">
    <g>
      <path class="cls-3" d="M16,6.52c.41,0,.81.04,1.21.09-.95-3.8-4.38-6.61-8.47-6.61C3.91,0,0,3.91,0,8.74c0,4.42,3.28,8.06,7.53,8.65-.17-.68-.27-1.39-.27-2.13,0-4.83,3.91-8.74,8.74-8.74Z"/>
      <path class="cls-2" d="M17.21,6.61c.17.68.27,1.39.27,2.13,0,4.83-3.91,8.74-8.74,8.74-.41,0-.81-.04-1.21-.09.95,3.8,4.38,6.61,8.47,6.61,4.83,0,8.74-3.91,8.74-8.74,0-4.42-3.28-8.06-7.53-8.65Z"/>
      <path class="cls-1" d="M17.48,8.74c0-.74-.1-1.45-.27-2.13-.4-.05-.8-.09-1.21-.09-4.83,0-8.74,3.91-8.74,8.74,0,.74.1,1.45.27,2.13.4.05.8.09,1.21.09,4.83,0,8.74-3.91,8.74-8.74Z"/>
    </g>
  </g>
</svg>