<?xml version="1.0" encoding="UTF-8"?>
<svg id="Layer_2" data-name="Layer 2" xmlns="http://www.w3.org/2000/svg" viewBox="0 0 23.65 22.65">
  <defs>
    <style>
      .cls-1 {
        fill: #6942c4;
      }

      .cls-1, .cls-2 {
        stroke-width: 0px;
      }

      .cls-2 {
        fill: #9e77eb;
      }
    </style>
  </defs>
  <g id="layers">
    <g>
      <path class="cls-2" d="M9.14,7.88l-4.55,13.44c-.26.77.45,1.52,1.23,1.3l13.85-3.89c.35-.1.62-.38.71-.73l3.25-13.22c.19-.76-.52-1.43-1.26-1.21l-12.55,3.68c-.32.09-.57.33-.67.65Z"/>
      <path class="cls-1" d="M4.61,4.36L.05,17.8c-.26.77.45,1.52,1.23,1.3l13.85-3.89c.35-.1.62-.38.71-.73l3.25-13.22c.19-.76-.52-1.43-1.26-1.21L5.28,3.72c-.32.09-.57.33-.67.65Z"/>
    </g>
  </g>
</svg>