<?xml version="1.0" encoding="UTF-8"?>
<svg id="Layer_2" data-name="Layer 2" xmlns="http://www.w3.org/2000/svg" viewBox="0 0 24.44 24.44">
  <defs>
    <style>
      .cls-1 {
        fill: #661cb8;
      }

      .cls-1, .cls-2, .cls-3, .cls-4 {
        stroke-width: 0px;
      }

      .cls-2 {
        fill: none;
      }

      .cls-3 {
        fill: #f670c5;
      }

      .cls-4 {
        fill: #693aed;
      }
    </style>
  </defs>
  <g id="Quotient">
    <g>
      <path class="cls-2" d="M12.22,6c-3.43,0-6.22,2.79-6.22,6.22s2.79,6.22,6.22,6.22c.45,0,.89-.05,1.32-.14l-1.07-1.07c-1.34-1.34-1.34-3.53,0-4.87,1.34-1.34,3.53-1.34,4.87,0l1,1c.07-.37.11-.74.11-1.13,0-3.43-2.79-6.22-6.22-6.22Z"/>
      <path class="cls-4" d="M12.22,18.44c-3.43,0-6.22-2.79-6.22-6.22s2.79-6.22,6.22-6.22,6.22,2.79,6.22,6.22c0,.39-.04.76-.11,1.13l4.65,4.65c.93-1.72,1.46-3.69,1.46-5.78C24.44,5.47,18.97,0,12.22,0S0,5.47,0,12.22s5.47,12.22,12.22,12.22c2.15,0,4.17-.56,5.93-1.54l-4.61-4.61c-.43.09-.87.14-1.32.14Z"/>
      <path class="cls-3" d="M12.47,12.36c-1.34,1.34-1.34,3.53,0,4.87l1.07,1.07c2.44-.53,4.34-2.49,4.8-4.95l-1-1c-1.34-1.34-3.53-1.34-4.87,0Z"/>
      <path class="cls-3" d="M22.99,18.01c-1.11,2.06-2.8,3.76-4.84,4.9l.04.04c1.34,1.34,3.53,1.34,4.87,0,1.34-1.34,1.34-3.53,0-4.87l-.07-.07Z"/>
      <path class="cls-1" d="M22.99,18.01l-4.65-4.65c-.45,2.46-2.36,4.42-4.8,4.95l4.61,4.61c2.04-1.14,3.73-2.84,4.84-4.9Z"/>
    </g>
  </g>
</svg>